# xmcd
#
# Track frame offsets: 
#        150
#        17781
#        33891
#        53837
#        83701
#
# Disc length: 1515 seconds
#
# Revision: 0
# Processed by: cddbd v1.5.2PL0 Copyright (c) Steve Scherf et al.
# Submitted via: ExactAudioCopy v0.99pb3
#
DISCID=3005e905
DTITLE=Uncle Tupelo - Blue Note Columbia, MO 4-29-04 - D2
DYEAR=1900
DGENRE=
TTITLE0=Gun
TTITLE1=Chickamauga
TTITLE2=Give Back teh Key To My Heart
TTITLE3=Whiskey Bottle
TTITLE4=Effigy
EXTD=
EXTT0=
EXTT1=
EXTT2=
EXTT3=
EXTT4=
PLAYORDER=
